<mxfile host="app.diagrams.net" modified="2020-07-21T22:08:01.340Z" agent="5.0 (Macintosh; Intel Mac OS X 10_14_6) AppleWebKit/605.1.15 (KHTML, like Gecko) Version/13.1.2 Safari/605.1.15" etag="Cw8ybH8jhtBES7SgKGth" version="13.4.6" type="github">
  <diagram id="VulhgJpW_ZuZeacjrGCj" name="Page-1">
    <mxGraphModel dx="1395" dy="851" grid="1" gridSize="10" guides="1" tooltips="1" connect="1" arrows="1" fold="1" page="1" pageScale="1" pageWidth="3300" pageHeight="2339" math="0" shadow="0">
      <root>
        <mxCell id="0" />
        <mxCell id="1" parent="0" />
        <mxCell id="sdcU5tGspyF5gtB9qaK0-39" value="" style="verticalLabelPosition=bottom;verticalAlign=top;html=1;shape=mxgraph.basic.rect;fillColor2=none;strokeWidth=1;size=20;indent=5;rounded=0;opacity=10;fillColor=#BDBDBD;" vertex="1" parent="1">
          <mxGeometry y="1080" width="530" height="680" as="geometry" />
        </mxCell>
        <mxCell id="sdcU5tGspyF5gtB9qaK0-29" style="edgeStyle=orthogonalEdgeStyle;rounded=0;orthogonalLoop=1;jettySize=auto;html=1;exitX=1;exitY=0.5;exitDx=0;exitDy=0;entryX=1.027;entryY=0.544;entryDx=0;entryDy=0;entryPerimeter=0;" edge="1" parent="1" source="sdcU5tGspyF5gtB9qaK0-17" target="sdcU5tGspyF5gtB9qaK0-25">
          <mxGeometry relative="1" as="geometry" />
        </mxCell>
        <mxCell id="sdcU5tGspyF5gtB9qaK0-30" style="edgeStyle=orthogonalEdgeStyle;rounded=0;orthogonalLoop=1;jettySize=auto;html=1;entryX=0;entryY=0.5;entryDx=0;entryDy=0;" edge="1" parent="1" source="sdcU5tGspyF5gtB9qaK0-16" target="sdcU5tGspyF5gtB9qaK0-3">
          <mxGeometry relative="1" as="geometry" />
        </mxCell>
        <mxCell id="sdcU5tGspyF5gtB9qaK0-2" value="User" style="swimlane;fontStyle=0;childLayout=stackLayout;horizontal=1;startSize=26;fillColor=none;horizontalStack=0;resizeParent=1;resizeParentMax=0;resizeLast=0;collapsible=1;marginBottom=0;swimlaneFillColor=#ffffff;rounded=0;" vertex="1" parent="1">
          <mxGeometry x="250" y="1120" width="150" height="260" as="geometry">
            <mxRectangle x="200" y="1118" width="50" height="26" as="alternateBounds" />
          </mxGeometry>
        </mxCell>
        <mxCell id="sdcU5tGspyF5gtB9qaK0-3" value="Id" style="text;fillColor=none;align=left;verticalAlign=top;spacingLeft=4;spacingRight=4;overflow=hidden;rotatable=0;points=[[0,0.5],[1,0.5]];portConstraint=eastwest;strokeColor=#000000;" vertex="1" parent="sdcU5tGspyF5gtB9qaK0-2">
          <mxGeometry y="26" width="150" height="26" as="geometry" />
        </mxCell>
        <mxCell id="sdcU5tGspyF5gtB9qaK0-4" value="FirstName" style="text;fillColor=none;align=left;verticalAlign=top;spacingLeft=4;spacingRight=4;overflow=hidden;rotatable=0;points=[[0,0.5],[1,0.5]];portConstraint=eastwest;strokeColor=#000000;" vertex="1" parent="sdcU5tGspyF5gtB9qaK0-2">
          <mxGeometry y="52" width="150" height="26" as="geometry" />
        </mxCell>
        <mxCell id="sdcU5tGspyF5gtB9qaK0-5" value="LastName" style="text;fillColor=none;align=left;verticalAlign=top;spacingLeft=4;spacingRight=4;overflow=hidden;rotatable=0;points=[[0,0.5],[1,0.5]];portConstraint=eastwest;strokeColor=#000000;" vertex="1" parent="sdcU5tGspyF5gtB9qaK0-2">
          <mxGeometry y="78" width="150" height="26" as="geometry" />
        </mxCell>
        <mxCell id="sdcU5tGspyF5gtB9qaK0-6" value="Email" style="text;fillColor=none;align=left;verticalAlign=top;spacingLeft=4;spacingRight=4;overflow=hidden;rotatable=0;points=[[0,0.5],[1,0.5]];portConstraint=eastwest;strokeColor=#000000;" vertex="1" parent="sdcU5tGspyF5gtB9qaK0-2">
          <mxGeometry y="104" width="150" height="26" as="geometry" />
        </mxCell>
        <mxCell id="sdcU5tGspyF5gtB9qaK0-7" value="JobTitle" style="text;fillColor=none;align=left;verticalAlign=top;spacingLeft=4;spacingRight=4;overflow=hidden;rotatable=0;points=[[0,0.5],[1,0.5]];portConstraint=eastwest;strokeColor=#000000;" vertex="1" parent="sdcU5tGspyF5gtB9qaK0-2">
          <mxGeometry y="130" width="150" height="26" as="geometry" />
        </mxCell>
        <mxCell id="sdcU5tGspyF5gtB9qaK0-8" value="PasswordHash" style="text;fillColor=none;align=left;verticalAlign=top;spacingLeft=4;spacingRight=4;overflow=hidden;rotatable=0;points=[[0,0.5],[1,0.5]];portConstraint=eastwest;strokeColor=#000000;" vertex="1" parent="sdcU5tGspyF5gtB9qaK0-2">
          <mxGeometry y="156" width="150" height="26" as="geometry" />
        </mxCell>
        <mxCell id="sdcU5tGspyF5gtB9qaK0-9" value="PasswordSalt" style="text;fillColor=none;align=left;verticalAlign=top;spacingLeft=4;spacingRight=4;overflow=hidden;rotatable=0;points=[[0,0.5],[1,0.5]];portConstraint=eastwest;strokeColor=#000000;" vertex="1" parent="sdcU5tGspyF5gtB9qaK0-2">
          <mxGeometry y="182" width="150" height="26" as="geometry" />
        </mxCell>
        <mxCell id="sdcU5tGspyF5gtB9qaK0-10" value="IsEmailConfirmed" style="text;fillColor=none;align=left;verticalAlign=top;spacingLeft=4;spacingRight=4;overflow=hidden;rotatable=0;points=[[0,0.5],[1,0.5]];portConstraint=eastwest;strokeColor=#000000;" vertex="1" parent="sdcU5tGspyF5gtB9qaK0-2">
          <mxGeometry y="208" width="150" height="26" as="geometry" />
        </mxCell>
        <mxCell id="sdcU5tGspyF5gtB9qaK0-13" value="DepartamentId" style="text;fillColor=none;align=left;verticalAlign=top;spacingLeft=4;spacingRight=4;overflow=hidden;rotatable=0;points=[[0,0.5],[1,0.5]];portConstraint=eastwest;strokeColor=#000000;" vertex="1" parent="sdcU5tGspyF5gtB9qaK0-2">
          <mxGeometry y="234" width="150" height="26" as="geometry" />
        </mxCell>
        <mxCell id="sdcU5tGspyF5gtB9qaK0-14" value="UserRoles" style="swimlane;fontStyle=0;childLayout=stackLayout;horizontal=1;startSize=26;fillColor=none;horizontalStack=0;resizeParent=1;resizeParentMax=0;resizeLast=0;collapsible=1;marginBottom=0;swimlaneFillColor=#ffffff;rounded=0;" vertex="1" parent="1">
          <mxGeometry x="250" y="1420" width="150" height="104" as="geometry">
            <mxRectangle x="200" y="1118" width="50" height="26" as="alternateBounds" />
          </mxGeometry>
        </mxCell>
        <mxCell id="sdcU5tGspyF5gtB9qaK0-15" value="Id" style="text;fillColor=none;align=left;verticalAlign=top;spacingLeft=4;spacingRight=4;overflow=hidden;rotatable=0;points=[[0,0.5],[1,0.5]];portConstraint=eastwest;strokeColor=#000000;" vertex="1" parent="sdcU5tGspyF5gtB9qaK0-14">
          <mxGeometry y="26" width="150" height="26" as="geometry" />
        </mxCell>
        <mxCell id="sdcU5tGspyF5gtB9qaK0-16" value="UserId" style="text;fillColor=none;align=left;verticalAlign=top;spacingLeft=4;spacingRight=4;overflow=hidden;rotatable=0;points=[[0,0.5],[1,0.5]];portConstraint=eastwest;strokeColor=#000000;" vertex="1" parent="sdcU5tGspyF5gtB9qaK0-14">
          <mxGeometry y="52" width="150" height="26" as="geometry" />
        </mxCell>
        <mxCell id="sdcU5tGspyF5gtB9qaK0-17" value="RoleId" style="text;fillColor=none;align=left;verticalAlign=top;spacingLeft=4;spacingRight=4;overflow=hidden;rotatable=0;points=[[0,0.5],[1,0.5]];portConstraint=eastwest;strokeColor=#000000;" vertex="1" parent="sdcU5tGspyF5gtB9qaK0-14">
          <mxGeometry y="78" width="150" height="26" as="geometry" />
        </mxCell>
        <mxCell id="sdcU5tGspyF5gtB9qaK0-24" value="Role" style="swimlane;fontStyle=0;childLayout=stackLayout;horizontal=1;startSize=26;fillColor=none;horizontalStack=0;resizeParent=1;resizeParentMax=0;resizeLast=0;collapsible=1;marginBottom=0;swimlaneFillColor=#ffffff;rounded=0;" vertex="1" parent="1">
          <mxGeometry x="250" y="1580" width="150" height="78" as="geometry">
            <mxRectangle x="200" y="1118" width="50" height="26" as="alternateBounds" />
          </mxGeometry>
        </mxCell>
        <mxCell id="sdcU5tGspyF5gtB9qaK0-25" value="Id" style="text;fillColor=none;align=left;verticalAlign=top;spacingLeft=4;spacingRight=4;overflow=hidden;rotatable=0;points=[[0,0.5],[1,0.5]];portConstraint=eastwest;strokeColor=#000000;" vertex="1" parent="sdcU5tGspyF5gtB9qaK0-24">
          <mxGeometry y="26" width="150" height="26" as="geometry" />
        </mxCell>
        <mxCell id="sdcU5tGspyF5gtB9qaK0-26" value="Name" style="text;fillColor=none;align=left;verticalAlign=top;spacingLeft=4;spacingRight=4;overflow=hidden;rotatable=0;points=[[0,0.5],[1,0.5]];portConstraint=eastwest;strokeColor=#000000;" vertex="1" parent="sdcU5tGspyF5gtB9qaK0-24">
          <mxGeometry y="52" width="150" height="26" as="geometry" />
        </mxCell>
        <mxCell id="sdcU5tGspyF5gtB9qaK0-31" value="ResetPasswordToken" style="swimlane;fontStyle=0;childLayout=stackLayout;horizontal=1;startSize=26;fillColor=none;horizontalStack=0;resizeParent=1;resizeParentMax=0;resizeLast=0;collapsible=1;marginBottom=0;swimlaneFillColor=#ffffff;rounded=0;" vertex="1" parent="1">
          <mxGeometry x="30" y="1420" width="150" height="182" as="geometry">
            <mxRectangle x="200" y="1118" width="50" height="26" as="alternateBounds" />
          </mxGeometry>
        </mxCell>
        <mxCell id="sdcU5tGspyF5gtB9qaK0-32" value="Id" style="text;fillColor=none;align=left;verticalAlign=top;spacingLeft=4;spacingRight=4;overflow=hidden;rotatable=0;points=[[0,0.5],[1,0.5]];portConstraint=eastwest;strokeColor=#000000;" vertex="1" parent="sdcU5tGspyF5gtB9qaK0-31">
          <mxGeometry y="26" width="150" height="26" as="geometry" />
        </mxCell>
        <mxCell id="sdcU5tGspyF5gtB9qaK0-33" value="UserId" style="text;fillColor=none;align=left;verticalAlign=top;spacingLeft=4;spacingRight=4;overflow=hidden;rotatable=0;points=[[0,0.5],[1,0.5]];portConstraint=eastwest;strokeColor=#000000;" vertex="1" parent="sdcU5tGspyF5gtB9qaK0-31">
          <mxGeometry y="52" width="150" height="26" as="geometry" />
        </mxCell>
        <mxCell id="sdcU5tGspyF5gtB9qaK0-34" value="TokenHash" style="text;fillColor=none;align=left;verticalAlign=top;spacingLeft=4;spacingRight=4;overflow=hidden;rotatable=0;points=[[0,0.5],[1,0.5]];portConstraint=eastwest;strokeColor=#000000;" vertex="1" parent="sdcU5tGspyF5gtB9qaK0-31">
          <mxGeometry y="78" width="150" height="26" as="geometry" />
        </mxCell>
        <mxCell id="sdcU5tGspyF5gtB9qaK0-35" value="TokenSalt" style="text;fillColor=none;align=left;verticalAlign=top;spacingLeft=4;spacingRight=4;overflow=hidden;rotatable=0;points=[[0,0.5],[1,0.5]];portConstraint=eastwest;strokeColor=#000000;" vertex="1" parent="sdcU5tGspyF5gtB9qaK0-31">
          <mxGeometry y="104" width="150" height="26" as="geometry" />
        </mxCell>
        <mxCell id="sdcU5tGspyF5gtB9qaK0-36" value="ExpirationDate" style="text;fillColor=none;align=left;verticalAlign=top;spacingLeft=4;spacingRight=4;overflow=hidden;rotatable=0;points=[[0,0.5],[1,0.5]];portConstraint=eastwest;strokeColor=#000000;" vertex="1" parent="sdcU5tGspyF5gtB9qaK0-31">
          <mxGeometry y="130" width="150" height="26" as="geometry" />
        </mxCell>
        <mxCell id="sdcU5tGspyF5gtB9qaK0-37" value="WasTokenUsed" style="text;fillColor=none;align=left;verticalAlign=top;spacingLeft=4;spacingRight=4;overflow=hidden;rotatable=0;points=[[0,0.5],[1,0.5]];portConstraint=eastwest;strokeColor=#000000;" vertex="1" parent="sdcU5tGspyF5gtB9qaK0-31">
          <mxGeometry y="156" width="150" height="26" as="geometry" />
        </mxCell>
        <mxCell id="sdcU5tGspyF5gtB9qaK0-38" style="edgeStyle=orthogonalEdgeStyle;rounded=0;orthogonalLoop=1;jettySize=auto;html=1;entryX=0.004;entryY=0.368;entryDx=0;entryDy=0;entryPerimeter=0;" edge="1" parent="1" source="sdcU5tGspyF5gtB9qaK0-33" target="sdcU5tGspyF5gtB9qaK0-3">
          <mxGeometry relative="1" as="geometry" />
        </mxCell>
        <mxCell id="sdcU5tGspyF5gtB9qaK0-41" value="" style="verticalLabelPosition=bottom;verticalAlign=top;html=1;shape=mxgraph.basic.patternFillRect;fillStyle=diag;step=5;fillStrokeWidth=0.2;fillStrokeColor=#dddddd;rounded=0;strokeColor=#000000;strokeWidth=1;fillColor=#BDBDBD;opacity=40;" vertex="1" parent="1">
          <mxGeometry y="1020" width="530" height="60" as="geometry" />
        </mxCell>
        <mxCell id="sdcU5tGspyF5gtB9qaK0-44" value="Identity Service" style="text;html=1;strokeColor=none;fillColor=none;align=center;verticalAlign=middle;whiteSpace=wrap;rounded=0;fontSize=34;opacity=40;" vertex="1" parent="1">
          <mxGeometry x="147.5" y="1040" width="235" height="20" as="geometry" />
        </mxCell>
        <mxCell id="sdcU5tGspyF5gtB9qaK0-46" value="" style="verticalLabelPosition=bottom;verticalAlign=top;html=1;shape=mxgraph.basic.rect;fillColor2=none;strokeWidth=1;size=20;indent=5;rounded=0;opacity=10;fillColor=#BDBDBD;" vertex="1" parent="1">
          <mxGeometry x="540" y="1080" width="530" height="680" as="geometry" />
        </mxCell>
        <mxCell id="sdcU5tGspyF5gtB9qaK0-47" value="" style="verticalLabelPosition=bottom;verticalAlign=top;html=1;shape=mxgraph.basic.patternFillRect;fillStyle=diag;step=5;fillStrokeWidth=0.2;fillStrokeColor=#dddddd;rounded=0;strokeColor=#000000;strokeWidth=1;fillColor=#BDBDBD;opacity=40;" vertex="1" parent="1">
          <mxGeometry x="540" y="1020" width="530" height="60" as="geometry" />
        </mxCell>
        <mxCell id="sdcU5tGspyF5gtB9qaK0-55" value="Logistics Service" style="text;html=1;strokeColor=none;fillColor=none;align=center;verticalAlign=middle;whiteSpace=wrap;rounded=0;fontSize=34;opacity=40;" vertex="1" parent="1">
          <mxGeometry x="625" y="1040" width="360" height="20" as="geometry" />
        </mxCell>
        <mxCell id="sdcU5tGspyF5gtB9qaK0-48" value="Departament" style="swimlane;fontStyle=0;childLayout=stackLayout;horizontal=1;startSize=26;fillColor=none;horizontalStack=0;resizeParent=1;resizeParentMax=0;resizeLast=0;collapsible=1;marginBottom=0;swimlaneFillColor=#ffffff;rounded=0;" vertex="1" parent="1">
          <mxGeometry x="580" y="1120" width="130" height="154" as="geometry">
            <mxRectangle x="200" y="1118" width="50" height="26" as="alternateBounds" />
          </mxGeometry>
        </mxCell>
        <mxCell id="sdcU5tGspyF5gtB9qaK0-49" value="Id" style="text;fillColor=none;align=left;verticalAlign=top;spacingLeft=4;spacingRight=4;overflow=hidden;rotatable=0;points=[[0,0.5],[1,0.5]];portConstraint=eastwest;strokeColor=#000000;" vertex="1" parent="sdcU5tGspyF5gtB9qaK0-48">
          <mxGeometry y="26" width="130" height="24" as="geometry" />
        </mxCell>
        <mxCell id="sdcU5tGspyF5gtB9qaK0-50" value="Name" style="text;fillColor=none;align=left;verticalAlign=top;spacingLeft=4;spacingRight=4;overflow=hidden;rotatable=0;points=[[0,0.5],[1,0.5]];portConstraint=eastwest;strokeColor=#000000;" vertex="1" parent="sdcU5tGspyF5gtB9qaK0-48">
          <mxGeometry y="50" width="130" height="26" as="geometry" />
        </mxCell>
        <mxCell id="sdcU5tGspyF5gtB9qaK0-51" value="OfficeId" style="text;fillColor=none;align=left;verticalAlign=top;spacingLeft=4;spacingRight=4;overflow=hidden;rotatable=0;points=[[0,0.5],[1,0.5]];portConstraint=eastwest;strokeColor=#000000;" vertex="1" parent="sdcU5tGspyF5gtB9qaK0-48">
          <mxGeometry y="76" width="130" height="26" as="geometry" />
        </mxCell>
        <mxCell id="sdcU5tGspyF5gtB9qaK0-52" value="Floor" style="text;fillColor=none;align=left;verticalAlign=top;spacingLeft=4;spacingRight=4;overflow=hidden;rotatable=0;points=[[0,0.5],[1,0.5]];portConstraint=eastwest;strokeColor=#000000;" vertex="1" parent="sdcU5tGspyF5gtB9qaK0-48">
          <mxGeometry y="102" width="130" height="26" as="geometry" />
        </mxCell>
        <mxCell id="sdcU5tGspyF5gtB9qaK0-53" value="Capacity" style="text;fillColor=none;align=left;verticalAlign=top;spacingLeft=4;spacingRight=4;overflow=hidden;rotatable=0;points=[[0,0.5],[1,0.5]];portConstraint=eastwest;strokeColor=#000000;" vertex="1" parent="sdcU5tGspyF5gtB9qaK0-48">
          <mxGeometry y="128" width="130" height="26" as="geometry" />
        </mxCell>
        <mxCell id="sdcU5tGspyF5gtB9qaK0-56" value="Office" style="swimlane;fontStyle=0;childLayout=stackLayout;horizontal=1;startSize=26;fillColor=none;horizontalStack=0;resizeParent=1;resizeParentMax=0;resizeLast=0;collapsible=1;marginBottom=0;swimlaneFillColor=#ffffff;rounded=0;" vertex="1" parent="1">
          <mxGeometry x="580" y="1330" width="130" height="180" as="geometry">
            <mxRectangle x="200" y="1118" width="50" height="26" as="alternateBounds" />
          </mxGeometry>
        </mxCell>
        <mxCell id="sdcU5tGspyF5gtB9qaK0-57" value="Id" style="text;fillColor=none;align=left;verticalAlign=top;spacingLeft=4;spacingRight=4;overflow=hidden;rotatable=0;points=[[0,0.5],[1,0.5]];portConstraint=eastwest;strokeColor=#000000;" vertex="1" parent="sdcU5tGspyF5gtB9qaK0-56">
          <mxGeometry y="26" width="130" height="24" as="geometry" />
        </mxCell>
        <mxCell id="sdcU5tGspyF5gtB9qaK0-58" value="Name" style="text;fillColor=none;align=left;verticalAlign=top;spacingLeft=4;spacingRight=4;overflow=hidden;rotatable=0;points=[[0,0.5],[1,0.5]];portConstraint=eastwest;strokeColor=#000000;" vertex="1" parent="sdcU5tGspyF5gtB9qaK0-56">
          <mxGeometry y="50" width="130" height="26" as="geometry" />
        </mxCell>
        <mxCell id="sdcU5tGspyF5gtB9qaK0-59" value="CompanyId" style="text;fillColor=none;align=left;verticalAlign=top;spacingLeft=4;spacingRight=4;overflow=hidden;rotatable=0;points=[[0,0.5],[1,0.5]];portConstraint=eastwest;strokeColor=#000000;" vertex="1" parent="sdcU5tGspyF5gtB9qaK0-56">
          <mxGeometry y="76" width="130" height="26" as="geometry" />
        </mxCell>
        <mxCell id="sdcU5tGspyF5gtB9qaK0-60" value="City" style="text;fillColor=none;align=left;verticalAlign=top;spacingLeft=4;spacingRight=4;overflow=hidden;rotatable=0;points=[[0,0.5],[1,0.5]];portConstraint=eastwest;strokeColor=#000000;" vertex="1" parent="sdcU5tGspyF5gtB9qaK0-56">
          <mxGeometry y="102" width="130" height="26" as="geometry" />
        </mxCell>
        <mxCell id="sdcU5tGspyF5gtB9qaK0-61" value="Capacity" style="text;fillColor=none;align=left;verticalAlign=top;spacingLeft=4;spacingRight=4;overflow=hidden;rotatable=0;points=[[0,0.5],[1,0.5]];portConstraint=eastwest;strokeColor=#000000;" vertex="1" parent="sdcU5tGspyF5gtB9qaK0-56">
          <mxGeometry y="128" width="130" height="26" as="geometry" />
        </mxCell>
        <mxCell id="sdcU5tGspyF5gtB9qaK0-62" value="Address" style="text;fillColor=none;align=left;verticalAlign=top;spacingLeft=4;spacingRight=4;overflow=hidden;rotatable=0;points=[[0,0.5],[1,0.5]];portConstraint=eastwest;strokeColor=#000000;" vertex="1" parent="sdcU5tGspyF5gtB9qaK0-56">
          <mxGeometry y="154" width="130" height="26" as="geometry" />
        </mxCell>
        <mxCell id="sdcU5tGspyF5gtB9qaK0-63" value="Company" style="swimlane;fontStyle=0;childLayout=stackLayout;horizontal=1;startSize=26;fillColor=none;horizontalStack=0;resizeParent=1;resizeParentMax=0;resizeLast=0;collapsible=1;marginBottom=0;swimlaneFillColor=#ffffff;rounded=0;" vertex="1" parent="1">
          <mxGeometry x="580" y="1570" width="130" height="102" as="geometry">
            <mxRectangle x="200" y="1118" width="50" height="26" as="alternateBounds" />
          </mxGeometry>
        </mxCell>
        <mxCell id="sdcU5tGspyF5gtB9qaK0-64" value="Id" style="text;fillColor=none;align=left;verticalAlign=top;spacingLeft=4;spacingRight=4;overflow=hidden;rotatable=0;points=[[0,0.5],[1,0.5]];portConstraint=eastwest;strokeColor=#000000;" vertex="1" parent="sdcU5tGspyF5gtB9qaK0-63">
          <mxGeometry y="26" width="130" height="24" as="geometry" />
        </mxCell>
        <mxCell id="sdcU5tGspyF5gtB9qaK0-65" value="Name" style="text;fillColor=none;align=left;verticalAlign=top;spacingLeft=4;spacingRight=4;overflow=hidden;rotatable=0;points=[[0,0.5],[1,0.5]];portConstraint=eastwest;strokeColor=#000000;" vertex="1" parent="sdcU5tGspyF5gtB9qaK0-63">
          <mxGeometry y="50" width="130" height="26" as="geometry" />
        </mxCell>
        <mxCell id="sdcU5tGspyF5gtB9qaK0-70" value="Country" style="text;fillColor=none;align=left;verticalAlign=top;spacingLeft=4;spacingRight=4;overflow=hidden;rotatable=0;points=[[0,0.5],[1,0.5]];portConstraint=eastwest;strokeColor=#000000;" vertex="1" parent="sdcU5tGspyF5gtB9qaK0-63">
          <mxGeometry y="76" width="130" height="26" as="geometry" />
        </mxCell>
        <mxCell id="sdcU5tGspyF5gtB9qaK0-71" style="edgeStyle=orthogonalEdgeStyle;rounded=0;orthogonalLoop=1;jettySize=auto;html=1;entryX=0;entryY=0.5;entryDx=0;entryDy=0;fontSize=34;" edge="1" parent="1" source="sdcU5tGspyF5gtB9qaK0-51" target="sdcU5tGspyF5gtB9qaK0-57">
          <mxGeometry relative="1" as="geometry" />
        </mxCell>
        <mxCell id="sdcU5tGspyF5gtB9qaK0-72" style="edgeStyle=orthogonalEdgeStyle;rounded=0;orthogonalLoop=1;jettySize=auto;html=1;entryX=0;entryY=0.5;entryDx=0;entryDy=0;fontSize=34;" edge="1" parent="1" source="sdcU5tGspyF5gtB9qaK0-59" target="sdcU5tGspyF5gtB9qaK0-64">
          <mxGeometry relative="1" as="geometry" />
        </mxCell>
        <mxCell id="sdcU5tGspyF5gtB9qaK0-73" style="edgeStyle=orthogonalEdgeStyle;rounded=0;orthogonalLoop=1;jettySize=auto;html=1;entryX=0;entryY=0.5;entryDx=0;entryDy=0;fontSize=34;" edge="1" parent="1" source="sdcU5tGspyF5gtB9qaK0-13" target="sdcU5tGspyF5gtB9qaK0-49">
          <mxGeometry relative="1" as="geometry" />
        </mxCell>
      </root>
    </mxGraphModel>
  </diagram>
</mxfile>
